Coordinates
version=1
nRows=14
nColumns=40
inDegrees=yes

Units are S.I. units (second, meters, Newtons, ...)
Angles are in degrees.

endheader
time	pelvis_tilt	pelvis_list	pelvis_rotation	pelvis_tx	pelvis_ty	pelvis_tz	hip_flexion_r	hip_adduction_r	hip_rotation_r	knee_angle_r	knee_angle_r_beta	ankle_angle_r	subtalar_angle_r	mtp_angle_r	hip_flexion_l	hip_adduction_l	hip_rotation_l	knee_angle_l	knee_angle_l_beta	ankle_angle_l	subtalar_angle_l	mtp_angle_l	lumbar_extension	lumbar_bending	lumbar_rotation	arm_flex_r	arm_add_r	arm_rot_r	elbow_flex_r	pro_sup_r	wrist_flex_r	wrist_dev_r	arm_flex_l	arm_add_l	arm_rot_l	elbow_flex_l	pro_sup_l	wrist_flex_l	wrist_dev_l
     13.35250000	     -4.07936510	     -5.07895445	      1.75896424	      0.92001336	      0.92588488	      0.43362513	     19.98123714	      2.63711743	    -13.47122343	     16.65917496	     16.65917496	      3.99427319	     -5.20725501	     -1.80902119	      3.90941622	     -9.57931283	    -11.26233975	     33.46726289	     33.46726289	     14.03950412	     -6.72175431	    -14.14759245	     -7.61880688	      3.98610831	     -0.97612464	     -0.49272888	    -17.76275609	     -0.67170356	     50.16940537	     45.26815881	      0.00000000	      0.00000000	      0.30471541	    -11.88403163	     -9.74000683	     35.61184954	     46.33920122	      0.00000000	      0.00000000
     13.36457143	     -3.95581268	     -5.30686633	      1.83027383	      0.91987046	      0.92648621	      0.43633824	     19.21578068	      3.09168824	    -13.70611972	     16.38797519	     16.38797519	      4.41213563	     -4.88640891	     -1.98643909	      5.77152484	    -10.60147221	    -10.48503261	     37.70937502	     37.70937502	     12.21183098	     -8.13816921	    -14.85641116	     -7.75648896	      4.26338814	     -0.51337059	      0.83902237	    -17.98529786	     -0.71380125	     50.82760763	     45.25592880	      0.00000000	      0.00000000	     -0.59971193	    -11.84276815	     -9.86941015	     35.07072327	     46.34118373	      0.00000000	      0.00000000
     13.37664286	     -3.92412802	     -5.51019942	      1.93072776	      0.91956144	      0.92669531	      0.43891537	     18.61250139	      3.47659222	    -13.99350009	     16.21846864	     16.21846864	      4.84118326	     -4.49987861	     -2.26539686	      7.92593211	    -11.48643058	     -9.37697766	     42.07146411	     42.07146411	      9.85744992	     -9.94502652	    -15.56932492	     -7.76984638	      4.50785424	     -0.38660935	      2.23979968	    -18.19219930	     -0.64571673	     51.88220770	     45.22511447	      0.00000000	      0.00000000	     -1.67098711	    -11.82881733	     -9.98503781	     34.32240593	     46.33905336	      0.00000000	      0.00000000
     13.38871429	     -3.79349027	     -5.69639257	      1.97898978	      0.91915871	      0.92684126	      0.44142537	     17.97819209	      3.84257542	    -14.19412955	     16.18718246	     16.18718246	      5.30399192	     -4.13610989	     -2.59766462	     10.05955260	    -12.25890918	     -8.16866717	     46.41599786	     46.41599786	      7.25587527	    -11.75283581	    -15.91220235	     -7.92811231	      4.73130074	     -0.13740350	      3.69294875	    -18.46940924	     -0.49326796	     53.03747854	     45.18735182	      0.00000000	      0.00000000	     -2.57145028	    -11.83736687	    -10.07036632	     33.62600070	     46.33605328	      0.00000000	      0.00000000
     13.40078571	     -3.71776345	     -5.72345325	      2.04258184	      0.91852337	      0.92677967	      0.44357491	     17.51629683	      3.93867308	    -14.61403732	     16.36201565	     16.36201565	      5.66027385	     -3.59082281	     -3.44751790	     12.28694468	    -12.59224168	     -6.68329291	     50.49842888	     50.49842888	      3.95091062	    -14.35769248	    -16.61483450	     -8.04791919	      4.81509843	     -0.10812626	      4.84661813	    -19.38854640	      1.66976630	     55.86431892	     45.02100616	      0.00000000	      0.00000000	     -3.35330643	    -11.78489143	    -10.53524912	     32.33509150	     46.38762447	      0.00000000	      0.00000000
     13.41285714	     -3.57781265	     -5.97789173	      2.09800605	      0.91784747	      0.92666370	      0.44586994	     16.93284789	      4.37305492	    -14.71305421	     16.38760406	     16.38760406	      6.08699788	     -3.48039424	     -3.67183055	     14.57465514	    -13.27473103	     -5.37947432	     54.63772711	     54.63772711	      1.55349205	    -15.33757845	    -15.78918287	     -8.21235860	      5.10373433	      0.27490647	      6.28522571	    -19.69216546	      1.63587742	     56.71543280	     45.00341164	      0.00000000	      0.00000000	     -4.14550461	    -11.67584033	    -10.55003409	     31.78065495	     46.37674282	      0.00000000	      0.00000000
     13.42492857	     -3.52913194	     -6.04328022	      2.15639979	      0.91687850	      0.92639750	      0.44777109	     16.58611961	      4.50742018	    -14.93071276	     16.67730097	     16.67730097	      6.51804627	     -3.22944095	     -4.17363910	     17.14346147	    -13.42584668	     -3.79691143	     58.87512418	     58.87512418	      1.04173880	    -15.37587311	    -10.21246567	     -8.32035053	      5.21952950	      0.31744120	      7.68708769	    -20.48359988	      3.39348727	     58.95598121	     44.89228906	      0.00000000	      0.00000000	     -4.80721496	    -11.61347760	    -10.69910695	     30.55666764	     46.38885551	      0.00000000	      0.00000000
     13.43700000	     -3.44140468	     -6.16817866	      2.23088832	      0.91585002	      0.92622557	      0.44960057	     16.15930654	      4.73411416	    -15.04860405	     16.87173645	     16.87173645	      7.00793832	     -3.08824401	     -4.34318923	     19.56306799	    -13.58005571	     -2.30224704	     62.54381002	     62.54381002	      0.45448798	    -15.26813985	     -5.77029504	     -8.46632448	      5.38044039	      0.48072348	      9.27966122	    -20.87442594	      4.00871432	     60.16973124	     44.87215008	      0.00000000	      0.00000000	     -5.49569327	    -11.48293161	    -10.76903229	     29.79058952	     46.38833809	      0.00000000	      0.00000000
     13.44907143	     -3.22191938	     -6.32561697	      2.28994393	      0.91482552	      0.92637761	      0.45138275	     15.54219874	      5.03066746	    -15.09096311	     16.96352825	     16.96352825	      7.41974094	     -3.00112335	     -4.49332003	     21.54938460	    -13.77565615	     -1.05120112	     65.32953803	     65.32953803	     -1.18579395	    -15.66224454	     -5.16803347	     -8.78792084	      5.54786422	      1.03598598	     10.87591690	    -21.17905775	      3.77808017	     60.86461270	     44.86747835	      0.00000000	      0.00000000	     -5.99803373	    -11.35186103	    -10.74041863	     29.45368756	     46.37584465	      0.00000000	      0.00000000
     13.46114286	     -3.20379167	     -6.44802393	      2.43610416	      0.91362542	      0.92634064	      0.45281097	     15.12977943	      5.24079435	    -15.24776290	     17.01222722	     17.01222722	      7.79996260	     -2.90815985	     -4.59169471	     23.74525846	    -13.69714369	      0.33434372	     67.69922614	     67.69922614	     -2.20409541	    -16.00327415	     -4.09164854	     -8.84901033	      5.74783555	      1.12398593	     12.40159370	    -21.26721483	      3.68451115	     61.88532088	     44.84714750	      0.00000000	      0.00000000	     -6.69277660	    -11.13670562	    -10.66256061	     28.91334853	     46.35228479	      0.00000000	      0.00000000
     13.47321429	     -3.18038138	     -6.48898451	      2.58913798	      0.91234936	      0.92649454	      0.45405626	     14.67698993	      5.35981385	    -15.40002960	     17.00474770	     17.00474770	      8.20759771	     -2.73250232	     -4.64584797	     25.80495255	    -13.45441311	      1.55420244	     69.52320119	     69.52320119	     -2.56559211	    -16.13620432	     -2.66071497	     -8.97652531	      5.84324533	      1.09614173	     13.95318447	    -21.26866082	      3.76896720	     63.10054111	     44.81487646	      0.00000000	      0.00000000	     -7.36949869	    -10.91897361	    -10.56035878	     28.28958563	     46.32568047	      0.00000000	      0.00000000
     13.48528571	     -3.08556956	     -6.42229441	      2.72632753	      0.91109825	      0.92690905	      0.45513304	     14.12983734	      5.32195386	    -15.70374079	     17.03099436	     17.03099436	      8.83911049	     -2.12218993	     -4.31047387	     27.81400318	    -13.12858161	      2.49793575	     71.12690500	     71.12690500	     -0.56883580	    -15.04518448	      3.54710207	     -9.13864632	      5.82041116	      1.16105644	     15.40226763	    -21.95450828	      5.50735070	     64.99057501	     44.72959680	      0.00000000	      0.00000000	     -7.67367863	    -10.79767278	    -10.35041401	     27.26862775	     46.29793510	      0.00000000	      0.00000000
     13.49735714	     -3.04656027	     -6.39515267	      2.90160970	      0.90980684	      0.92746677	      0.45608684	     13.49734442	      5.41904993	    -15.72511328	     16.70112893	     16.70112893	      9.10834005	     -2.02451795	     -4.24634494	     29.46911092	    -12.78395106	      3.31275336	     71.60397570	     71.60397570	     -0.54028133	    -15.34812829	      3.72616674	     -9.28840886	      5.89772144	      1.32089094	     16.90880356	    -21.81749920	      5.26623957	     65.81527643	     44.72394512	      0.00000000	      0.00000000	     -8.22727148	    -10.52012163	    -10.28861740	     26.95365097	     46.27892715	      0.00000000	      0.00000000
     13.50942857	     -3.00942160	     -6.34511893	      3.05200760	      0.90844606	      0.92810654	      0.45700966	     12.84210432	      5.49285572	    -15.78890998	     16.32884146	     16.32884146	      9.35232437	     -1.83535026	     -4.17281493	     30.97893682	    -12.45871335	      3.89932263	     71.49337383	     71.49337383	     -0.29603838	    -15.71027361	      3.94261401	     -9.44045743	      5.88452637	      1.47825056	     18.40477889	    -21.74182111	      5.11038392	     66.70469586	     44.71227308	      0.00000000	      0.00000000	     -8.65982189	    -10.27236599	    -10.22670535	     26.70302212	     46.26179139	      0.00000000	      0.00000000
